<?xml version="1.0" encoding="utf-8"?>
<!-- Generator: Adobe Illustrator 23.0.3, SVG Export Plug-In . SVG Version: 6.00 Build 0)  -->
<svg version="1.1" id="Layer_1" xmlns="http://www.w3.org/2000/svg" xmlns:xlink="http://www.w3.org/1999/xlink" x="0px" y="0px"
	 viewBox="0 0 1920 1245" style="enable-background:new 0 0 1920 1245;" xml:space="preserve">
<style type="text/css">
	.st0{fill:#1A1A40;}
	.st1{fill:url(#SVGID_1_);}
	.st2{fill:url(#SVGID_2_);}
	.st3{fill:url(#SVGID_3_);}
	.st4{fill:#FFFFFF;}
	.st5{fill:url(#SVGID_4_);}
	.st6{fill:url(#SVGID_5_);}
	.st7{fill:url(#SVGID_6_);}
	.st8{fill:url(#SVGID_7_);}
	.st9{fill:url(#SVGID_8_);}
	.st10{fill:url(#SVGID_9_);}
	.st11{fill:url(#SVGID_10_);}
	.st12{fill:url(#SVGID_11_);}
	.st13{fill:url(#SVGID_12_);}
	.st14{fill:url(#SVGID_13_);}
	.st15{fill:url(#SVGID_14_);}
	.st16{fill:url(#SVGID_15_);}
	.st17{fill:url(#SVGID_16_);}
	.st18{fill:url(#SVGID_17_);}
	.st19{fill:url(#SVGID_18_);}
	.st20{fill:url(#SVGID_19_);}
	.st21{fill:url(#SVGID_20_);}
	.st22{fill:url(#SVGID_21_);}
	.st23{fill:url(#SVGID_22_);}
	.st24{fill:url(#SVGID_23_);}
</style>
<path class="st0" d="M1920,0v330.84l-108.02,108.02c-19.52,19.52-51.19,19.52-70.71,0l-0.12-0.12
	c-9.76-9.77-22.56-14.65-35.35-14.64c-11.53,0-23.06,3.96-32.35,11.87c-1.04,0.88-2.04,1.8-3.01,2.77c-0.97,0.97-1.89,1.97-2.76,3
	l-73.78,73.78c-19.56,19.56-51.27,19.56-70.83,0c-9.78-9.78-14.67-22.59-14.67-35.42c0-12.81,4.89-25.63,14.67-35.41l110.54-110.55
	c1.04-0.88,2.04-1.79,3.01-2.76c0.97-0.97,1.89-1.98,2.76-3.01c16.71-19.64,15.79-49.15-2.76-67.7l-0.12-0.12
	c-19.52-19.53-19.52-51.19,0-70.72c0.12-0.12,0.23-0.23,0.36-0.34l-0.01-0.01l7.37-7.37c1.03-0.87,2.04-1.79,3.01-2.76
	c0.96-0.97,1.88-1.97,2.76-3.01c4.1-4.82,7.14-10.24,9.12-15.94c-0.56-2.07-0.86-4.26-0.86-6.51v-0.09c0-4.66,1.28-9.04,3.53-12.77
	c-0.69-11.79-5.54-23.38-14.55-32.39l-0.12-0.12c-9.77-9.77-22.57-14.65-35.36-14.64c-11.53,0-23.05,3.96-32.35,11.87
	c-1.03,0.88-2.04,1.8-3,2.77c-0.97,0.97-1.89,1.97-2.77,3l-110.9,110.91c-19.56,19.55-51.27,19.55-70.83,0
	c-9.78-9.78-14.67-22.6-14.67-35.42c0-12.82,4.89-25.64,14.67-35.42L1543.49,0H1920z"/>
<g>
	<linearGradient id="SVGID_1_" gradientUnits="userSpaceOnUse" x1="1734.2473" y1="271.119" x2="1387.3682" y2="-93.1059">
		<stop  offset="0" style="stop-color:#7A0BC0"/>
		<stop  offset="1" style="stop-color:#270082"/>
	</linearGradient>
	<path class="st1" d="M1920,0v330.84l-108.02,108.02c-19.52,19.52-51.19,19.52-70.71,0l-0.12-0.12
		c-9.76-9.77-22.56-14.65-35.35-14.64c-11.53,0-23.06,3.96-32.35,11.87c-1.04,0.88-2.04,1.8-3.01,2.77c-0.97,0.97-1.89,1.97-2.76,3
		l-73.78,73.78c-19.56,19.56-51.27,19.56-70.83,0c-9.78-9.78-14.67-22.59-14.67-35.42c0-12.81,4.89-25.63,14.67-35.41l110.54-110.55
		c1.04-0.88,2.04-1.79,3.01-2.76c0.97-0.97,1.89-1.98,2.76-3.01c16.71-19.64,15.79-49.15-2.76-67.7l-0.12-0.12
		c-19.52-19.53-19.52-51.19,0-70.72c0.12-0.12,0.23-0.23,0.36-0.34l-0.01-0.01l7.37-7.37c1.03-0.87,2.04-1.79,3.01-2.76
		c0.96-0.97,1.88-1.97,2.76-3.01c4.1-4.82,7.14-10.24,9.12-15.94c2.17-6.25,3.06-12.84,2.67-19.37
		c-0.69-11.79-5.54-23.38-14.55-32.39l-0.12-0.12c-9.77-9.77-22.57-14.65-35.36-14.64c-11.53,0-23.05,3.96-32.35,11.87
		c-1.03,0.88-2.04,1.8-3,2.77c-0.97,0.97-1.89,1.97-2.77,3l-110.9,110.91c-19.56,19.55-51.27,19.55-70.83,0
		c-9.78-9.78-14.67-22.6-14.67-35.42c0-12.82,4.89-25.64,14.67-35.42L1543.49,0H1920z"/>
</g>
<g>
	<linearGradient id="SVGID_2_" gradientUnits="userSpaceOnUse" x1="1682.5376" y1="270.0491" x2="1961.9631" y2="47.2812">
		<stop  offset="4.468992e-03" style="stop-color:#FA58B6"/>
		<stop  offset="1" style="stop-color:#7A0BC0"/>
	</linearGradient>
	<path class="st2" d="M1920,0h-84.77l-134.79,134.48l-3.53,3.52c-0.78,0.95-1.5,1.96-2.13,3.03c-2.25,3.73-3.53,8.11-3.53,12.77
		v0.09c0,2.25,0.3,4.44,0.86,6.51c0.97,3.6,2.74,6.88,5.09,9.64l2.89,2.88l32.06,31.99c1.27,1.04,2.43,2.2,3.47,3.47
		c3.55,4.31,5.68,9.82,5.68,15.83v0.09c0,6.18-2.25,11.85-5.99,16.21c-0.85,0.99-1.78,1.92-2.79,2.77l-40.34,40.25
		c-9.77,9.75-9.77,25.56,0,35.31l35.33,35.25c9.78,9.75,25.63,9.75,35.4,0L1920,197.36V0z"/>
</g>
<g>
	<g>
		<g>
			<linearGradient id="SVGID_3_" gradientUnits="userSpaceOnUse" x1="-75.9316" y1="1149.7563" x2="507.1366" y2="684.9139">
				<stop  offset="0" style="stop-color:#1A1A40"/>
				<stop  offset="1" style="stop-color:#FA58B6"/>
			</linearGradient>
			<path class="st3" d="M533.78,1027.77L279,1245H0V716.78l22.4-22.4C54.68,662.1,98.04,647.63,140.25,651
				c30.34,2.41,60.09,14.04,84.69,34.88c0,0.01,0.01,0.01,0.01,0.01l37.59,37.59c0,0,0,0.01,0.01,0.01
				c2.06,2.52,4.27,4.95,6.63,7.31l0.23,0.23c2.35,2.36,4.79,4.57,7.31,6.63c11.88,9.76,25.48,16.35,39.69,19.78
				c24.99,6.04,51.86,2.31,74.53-11.19c2.54-1.52,4.86-3.37,6.96-5.47l45.99-45.99c9.76-9.76,22.55-14.64,35.35-14.64
				c12.79,0,25.59,4.88,35.36,14.64c19.59,19.59,19.59,51.36,0,70.95l-11.13,11.14c-0.01,0-0.01,0-0.01,0
				c-1.03,0.88-2.04,1.8-3,2.76c-0.97,0.97-1.89,1.97-2.76,3c-0.01,0.01-0.01,0.01-0.01,0.01c-8.97,8.97-13.45,20.73-13.45,32.48
				s4.48,23.51,13.45,32.47l36.09,36.09C573.56,923.47,573.56,987.98,533.78,1027.77z"/>
		</g>
		<g>
			<path class="st4" d="M250.54,823.31l-5.56,5.56C246.68,826.87,248.54,825.01,250.54,823.31z"/>
			<path d="M250.54,823.31c-2,1.7-3.86,3.56-5.56,5.56L250.54,823.31L250.54,823.31z"/>
		</g>
		<g>
			<linearGradient id="SVGID_4_" gradientUnits="userSpaceOnUse" x1="216.9887" y1="1012.4789" x2="-34.3934" y2="748.5264">
				<stop  offset="0" style="stop-color:#270082"/>
				<stop  offset="1" style="stop-color:#770BBE"/>
			</linearGradient>
			<path class="st5" d="M332.49,995.18c0.34,2.33,0.51,4.72,0.51,7.15v0.17c0,12.01-4.24,23.03-11.3,31.65l-7.05,7.05L111,1245H0
				V791.25l189.84-189.84c19.52-19.53,51.18-19.53,70.71,0L331.14,672c19.53,19.53,19.53,51.19,0,70.71l-80.6,80.6
				c-2,1.7-3.86,3.56-5.56,5.56c-7.47,8.73-11.98,20.07-11.98,32.46v0.17c0,12.03,4.26,23.08,11.35,31.71
				c2.08,2.54,4.4,4.86,6.94,6.94l17.28,17.28l46.78,46.79l5.77,5.76C327.07,976.98,331.13,985.64,332.49,995.18z"/>
		</g>
		<g>
			<path class="st4" d="M251.29,900.15c-2.54-2.08-4.86-4.4-6.94-6.94L251.29,900.15z"/>
			<path d="M244.35,893.21c2.08,2.54,4.4,4.86,6.94,6.94L244.35,893.21L244.35,893.21z"/>
		</g>
		<g>
			<linearGradient id="SVGID_5_" gradientUnits="userSpaceOnUse" x1="299.5244" y1="757.6674" x2="230.4756" y2="685.1657">
				<stop  offset="0" style="stop-color:#7A0BC0"/>
				<stop  offset="1" style="stop-color:#FA58B6"/>
			</linearGradient>
			<path class="st6" d="M265,771.5L265,771.5c-27.61,0-50-22.39-50-50v-0.17c0-27.61,22.39-50,50-50h0c27.61,0,50,22.39,50,50v0.17
				C315,749.11,292.61,771.5,265,771.5z"/>
		</g>
		<g>
			<linearGradient id="SVGID_6_" gradientUnits="userSpaceOnUse" x1="235.2539" y1="1098.0923" x2="23.0993" y2="875.3289">
				<stop  offset="0" style="stop-color:#7A0BC0"/>
				<stop  offset="1" style="stop-color:#FA58B6"/>
			</linearGradient>
			<path class="st7" d="M390.14,937.53L81,1245H0V903.16l122.02-122.02c9.76-9.76,22.56-14.64,35.36-14.64
				c10.57,0,21.15,3.33,30.01,10l10.1,10.11c14.74,19.58,13.19,47.53-4.64,65.36l-95.4,95.4c-1.03,0.88-2.04,1.8-3,2.77
				c-0.97,0.97-1.89,1.97-2.77,3c-16.71,19.64-15.79,49.15,2.77,67.71l0.12,0.12c18.55,18.55,48.07,19.47,67.7,2.76
				c1.03-0.87,2.04-1.79,3.01-2.76c0.97-0.97,1.88-1.97,2.76-3.01l100.53-100.53l50.74-50.73c9.75-9.76,22.55-14.64,35.35-14.64
				c12.79,0,25.59,4.87,35.36,14.64l0.12,0.12C409.66,886.34,409.66,918.01,390.14,937.53z"/>
		</g>
		<g>
			<path class="st4" d="M321.12,969.98l-5.77-5.76c1.04,0.87,2.04,1.8,3,2.76C319.31,967.94,320.24,968.94,321.12,969.98z"/>
			<path d="M315.35,964.22l5.77,5.76c-0.88-1.04-1.81-2.04-2.77-3C317.39,966.02,316.39,965.09,315.35,964.22L315.35,964.22z"/>
		</g>
		<g>
			<path class="st4" d="M321.7,1034.15c-2.11,2.58-4.47,4.94-7.05,7.05L321.7,1034.15z"/>
			<path d="M321.7,1034.15l-7.05,7.05C317.23,1039.09,319.59,1036.73,321.7,1034.15L321.7,1034.15z"/>
		</g>
	</g>
	<g>
		<g>
			<linearGradient id="SVGID_7_" gradientUnits="userSpaceOnUse" x1="281.7848" y1="837.98" x2="274.9058" y2="1221.8271">
				<stop  offset="0" style="stop-color:#1A1A40;stop-opacity:0"/>
				<stop  offset="0.7383" style="stop-color:#1A1A40"/>
			</linearGradient>
			<path class="st8" d="M533.78,1027.77L279,1245H0V716.78l22.4-22.4C54.68,662.1,98.04,647.63,140.25,651
				c30.34,2.41,60.09,14.04,84.69,34.88c0,0.01,0.01,0.01,0.01,0.01l37.59,37.59c0,0,0,0.01,0.01,0.01
				c2.06,2.52,4.27,4.95,6.63,7.31l0.23,0.23c2.35,2.36,4.79,4.57,7.31,6.63c11.88,9.76,25.48,16.35,39.69,19.78
				c24.99,6.04,51.86,2.31,74.53-11.19c2.54-1.52,4.86-3.37,6.96-5.47l45.99-45.99c9.76-9.76,22.55-14.64,35.35-14.64
				c12.79,0,25.59,4.88,35.36,14.64c19.59,19.59,19.59,51.36,0,70.95l-11.13,11.14c-0.01,0-0.01,0-0.01,0
				c-1.03,0.88-2.04,1.8-3,2.76c-0.97,0.97-1.89,1.97-2.76,3c-0.01,0.01-0.01,0.01-0.01,0.01c-8.97,8.97-13.45,20.73-13.45,32.48
				s4.48,23.51,13.45,32.47l36.09,36.09C573.56,923.47,573.56,987.98,533.78,1027.77z"/>
			<linearGradient id="SVGID_8_" gradientUnits="userSpaceOnUse" x1="281.7848" y1="837.98" x2="274.9058" y2="1221.8271">
				<stop  offset="0" style="stop-color:#1A1A40;stop-opacity:0"/>
				<stop  offset="0.7383" style="stop-color:#1A1A40"/>
			</linearGradient>
			<path class="st9" d="M128.27,651.52c3.96,0,7.96,0.16,11.9,0.47c31.05,2.47,60.01,14.34,83.77,34.35l0.01,0.54h0.59l37.01,37.01
				l0.01,0.59h0.53c1.96,2.37,4.11,4.73,6.4,7.02l0.23,0.23c2.35,2.36,4.83,4.61,7.38,6.7c11.78,9.68,25.27,16.4,40.09,19.98
				c7.77,1.88,15.76,2.83,23.77,2.83c18.17,0,35.98-4.89,51.51-14.13c2.53-1.52,4.94-3.41,7.15-5.62l45.99-45.99
				c9.25-9.25,21.55-14.35,34.64-14.35c13.08,0,25.39,5.1,34.65,14.35c19.17,19.17,19.17,50.36,0,69.54l-11.04,11.05l-0.04,0.03
				c-1.11,0.95-2.14,1.9-3.06,2.81c-0.98,0.98-1.91,1.99-2.79,3.03c-8.85,8.86-13.72,20.64-13.72,33.17
				c0,12.54,4.88,24.32,13.74,33.18l36.09,36.09c39.32,39.32,39.33,103.3,0.03,142.64L278.63,1244H1V717.19l22.11-22.11
				C51.2,666.99,88.55,651.52,128.27,651.52 M128.27,650.52c-38.32,0-76.64,14.63-105.87,43.86L0,716.78V1245h279l254.78-217.23
				c39.78-39.79,39.78-104.3,0-144.08l-36.09-36.09c-8.97-8.96-13.45-20.72-13.45-32.47s4.48-23.51,13.45-32.48c0,0,0,0,0.01-0.01
				c0.87-1.03,1.79-2.03,2.76-3c0.96-0.96,1.97-1.88,3-2.76c0,0,0,0,0.01,0l11.13-11.14c19.59-19.59,19.59-51.36,0-70.95
				c-9.77-9.76-22.57-14.64-35.36-14.64c-12.8,0-25.59,4.88-35.35,14.64l-45.99,45.99c-2.1,2.1-4.42,3.95-6.96,5.47
				c-15.66,9.33-33.33,13.99-51,13.99c-7.9,0-15.81-0.93-23.53-2.8c-14.21-3.43-27.81-10.02-39.69-19.78
				c-2.52-2.06-4.96-4.27-7.31-6.63l-0.23-0.23c-2.36-2.36-4.57-4.79-6.63-7.31c-0.01,0-0.01-0.01-0.01-0.01l-37.59-37.59
				c0,0-0.01,0-0.01-0.01c-24.6-20.84-54.35-32.47-84.69-34.88C136.26,650.68,132.27,650.52,128.27,650.52L128.27,650.52z"/>
		</g>
		<g>
			<linearGradient id="SVGID_9_" gradientUnits="userSpaceOnUse" x1="281.7848" y1="837.98" x2="274.9058" y2="1221.8271">
				<stop  offset="0" style="stop-color:#1A1A40;stop-opacity:0"/>
				<stop  offset="0.7383" style="stop-color:#1A1A40"/>
			</linearGradient>
			<path class="st10" d="M250.54,823.31l-5.56,5.56C246.68,826.87,248.54,825.01,250.54,823.31z"/>
			<linearGradient id="SVGID_10_" gradientUnits="userSpaceOnUse" x1="281.7848" y1="837.98" x2="274.9058" y2="1221.8271">
				<stop  offset="0" style="stop-color:#1A1A40;stop-opacity:0"/>
				<stop  offset="0.7383" style="stop-color:#1A1A40"/>
			</linearGradient>
			<path class="st11" d="M250.54,823.31c-2,1.7-3.86,3.56-5.56,5.56L250.54,823.31L250.54,823.31z"/>
		</g>
		<g>
			<linearGradient id="SVGID_11_" gradientUnits="userSpaceOnUse" x1="281.7848" y1="837.98" x2="274.9058" y2="1221.8271">
				<stop  offset="0" style="stop-color:#1A1A40;stop-opacity:0"/>
				<stop  offset="0.7383" style="stop-color:#1A1A40"/>
			</linearGradient>
			<path class="st12" d="M332.49,995.18c0.34,2.33,0.51,4.72,0.51,7.15v0.17c0,12.01-4.24,23.03-11.3,31.65l-7.05,7.05L111,1245H0
				V791.25l189.84-189.84c19.52-19.53,51.18-19.53,70.71,0L331.14,672c19.53,19.53,19.53,51.19,0,70.71l-80.6,80.6
				c-2,1.7-3.86,3.56-5.56,5.56c-7.47,8.73-11.98,20.07-11.98,32.46v0.17c0,12.03,4.26,23.08,11.35,31.71
				c2.08,2.54,4.4,4.86,6.94,6.94l17.28,17.28l46.78,46.79l5.77,5.76C327.07,976.98,331.13,985.64,332.49,995.18z"/>
			<linearGradient id="SVGID_12_" gradientUnits="userSpaceOnUse" x1="281.7848" y1="837.98" x2="274.9058" y2="1221.8271">
				<stop  offset="0" style="stop-color:#1A1A40;stop-opacity:0"/>
				<stop  offset="0.7383" style="stop-color:#1A1A40"/>
			</linearGradient>
			<path class="st13" d="M225.19,587.76c13.09,0,25.39,5.1,34.65,14.35l70.59,70.59c9.26,9.26,14.35,21.56,14.35,34.65
				c0,13.09-5.1,25.39-14.35,34.64l-80.57,80.57c-2.02,1.72-3.92,3.62-5.64,5.65c-7.88,9.21-12.22,20.97-12.22,33.11v0.17
				c0,11.77,4.11,23.26,11.58,32.34c2.1,2.57,4.47,4.94,7.04,7.05l17.24,17.24l46.78,46.79l5.74,5.73
				c5.98,7.04,9.82,15.57,11.12,24.67c0.33,2.27,0.5,4.63,0.5,7.01v0.17c0,11.27-3.92,22.27-11.04,30.98l-7.01,7.01L110.59,1244H1
				V791.66l189.55-189.55C199.8,592.86,212.1,587.76,225.19,587.76 M225.19,586.76c-12.8,0-25.59,4.88-35.35,14.65L0,791.25V1245
				h111l203.65-203.8l7.05-7.05c7.06-8.62,11.3-19.64,11.3-31.65v-0.17c0-2.43-0.17-4.82-0.51-7.15c-1.36-9.54-5.42-18.2-11.37-25.2
				l-5.77-5.76l-46.78-46.79l-17.28-17.28c-2.54-2.08-4.86-4.4-6.94-6.94c-7.09-8.63-11.35-19.68-11.35-31.71v-0.17
				c0-12.39,4.51-23.73,11.98-32.46c1.7-2,3.56-3.86,5.56-5.56l80.6-80.6c19.53-19.52,19.53-51.18,0-70.71l-70.59-70.59
				C250.78,591.65,237.99,586.76,225.19,586.76L225.19,586.76z"/>
		</g>
		<g>
			<linearGradient id="SVGID_13_" gradientUnits="userSpaceOnUse" x1="281.7848" y1="837.98" x2="274.9058" y2="1221.8271">
				<stop  offset="0" style="stop-color:#1A1A40;stop-opacity:0"/>
				<stop  offset="0.7383" style="stop-color:#1A1A40"/>
			</linearGradient>
			<path class="st14" d="M251.29,900.15c-2.54-2.08-4.86-4.4-6.94-6.94L251.29,900.15z"/>
			<linearGradient id="SVGID_14_" gradientUnits="userSpaceOnUse" x1="281.7848" y1="837.98" x2="274.9058" y2="1221.8271">
				<stop  offset="0" style="stop-color:#1A1A40;stop-opacity:0"/>
				<stop  offset="0.7383" style="stop-color:#1A1A40"/>
			</linearGradient>
			<path class="st15" d="M244.35,893.21c2.08,2.54,4.4,4.86,6.94,6.94L244.35,893.21L244.35,893.21z"/>
		</g>
		<g>
			<linearGradient id="SVGID_15_" gradientUnits="userSpaceOnUse" x1="281.7848" y1="837.98" x2="274.9058" y2="1221.8271">
				<stop  offset="0" style="stop-color:#1A1A40;stop-opacity:0"/>
				<stop  offset="0.7383" style="stop-color:#1A1A40"/>
			</linearGradient>
			<path class="st16" d="M265,771.5L265,771.5c-27.61,0-50-22.39-50-50v-0.17c0-27.61,22.39-50,50-50h0c27.61,0,50,22.39,50,50v0.17
				C315,749.11,292.61,771.5,265,771.5z"/>
			<linearGradient id="SVGID_16_" gradientUnits="userSpaceOnUse" x1="281.7848" y1="837.98" x2="274.9058" y2="1221.8271">
				<stop  offset="0" style="stop-color:#1A1A40;stop-opacity:0"/>
				<stop  offset="0.7383" style="stop-color:#1A1A40"/>
			</linearGradient>
			<path class="st17" d="M265,672.33c27.02,0,49,21.98,49,49v0.17c0,27.02-21.98,49-49,49c-27.02,0-49-21.98-49-49v-0.17
				C216,694.31,237.98,672.33,265,672.33 M265,671.33L265,671.33c-27.61,0-50,22.39-50,50v0.17c0,27.61,22.39,50,50,50h0
				c27.61,0,50-22.39,50-50v-0.17C315,693.72,292.61,671.33,265,671.33L265,671.33z"/>
		</g>
		<g>
			<linearGradient id="SVGID_17_" gradientUnits="userSpaceOnUse" x1="281.7848" y1="837.98" x2="274.9058" y2="1221.8271">
				<stop  offset="0" style="stop-color:#1A1A40;stop-opacity:0"/>
				<stop  offset="0.7383" style="stop-color:#1A1A40"/>
			</linearGradient>
			<path class="st18" d="M390.14,937.53L81,1245H0V903.16l122.02-122.02c9.76-9.76,22.56-14.64,35.36-14.64
				c10.57,0,21.15,3.33,30.01,10l10.1,10.11c14.74,19.58,13.19,47.53-4.64,65.36l-95.4,95.4c-1.03,0.88-2.04,1.8-3,2.77
				c-0.97,0.97-1.89,1.97-2.77,3c-16.71,19.64-15.79,49.15,2.77,67.71l0.12,0.12c18.55,18.55,48.07,19.47,67.7,2.76
				c1.03-0.87,2.04-1.79,3.01-2.76c0.97-0.97,1.88-1.97,2.76-3.01l100.53-100.53l50.74-50.73c9.75-9.76,22.55-14.64,35.35-14.64
				c12.79,0,25.59,4.87,35.36,14.64l0.12,0.12C409.66,886.34,409.66,918.01,390.14,937.53z"/>
			<linearGradient id="SVGID_18_" gradientUnits="userSpaceOnUse" x1="281.7848" y1="837.98" x2="274.9058" y2="1221.8271">
				<stop  offset="0" style="stop-color:#1A1A40;stop-opacity:0"/>
				<stop  offset="0.7383" style="stop-color:#1A1A40"/>
			</linearGradient>
			<path class="st19" d="M157.38,767.5c10.7,0,20.85,3.37,29.35,9.76l10,10.01c7,9.33,10.43,20.91,9.65,32.61
				c-0.79,11.84-5.84,22.98-14.24,31.38l-95.37,95.37c-1.14,0.97-2.13,1.89-3.03,2.8c-0.96,0.96-1.91,1.99-2.82,3.06
				c-17.08,20.07-15.83,50.41,2.82,69.07l0.12,0.12c9.63,9.63,22.43,14.93,36.06,14.93c12.1,0,23.82-4.3,33-12.11
				c1.09-0.92,2.12-1.87,3.07-2.82c0.94-0.94,1.86-1.94,2.79-3.04l100.5-100.5l50.74-50.73c9.24-9.25,21.55-14.35,34.64-14.35
				c13.09,0,25.4,5.1,34.65,14.35l0.12,0.12c9.25,9.25,14.35,21.56,14.35,34.65c0,13.09-5.1,25.4-14.35,34.65L80.59,1244H1V903.57
				l121.73-121.73C131.98,772.6,144.29,767.5,157.38,767.5 M157.38,766.5c-12.8,0-25.6,4.88-35.36,14.64L0,903.16V1245h81
				l309.14-307.47c19.52-19.52,19.52-51.19,0-70.71l-0.12-0.12c-9.77-9.77-22.57-14.64-35.36-14.64c-12.8,0-25.6,4.88-35.35,14.64
				l-50.74,50.73l-100.53,100.53c-0.88,1.04-1.79,2.04-2.76,3.01c-0.97,0.97-1.98,1.89-3.01,2.76c-9.3,7.92-20.83,11.88-32.35,11.88
				c-12.79,0-25.59-4.88-35.35-14.64l-0.12-0.12c-18.56-18.56-19.48-48.07-2.77-67.71c0.88-1.03,1.8-2.03,2.77-3
				c0.96-0.97,1.97-1.89,3-2.77l95.4-95.4c17.83-17.83,19.38-45.78,4.64-65.36l-10.1-10.11C178.53,769.83,167.95,766.5,157.38,766.5
				L157.38,766.5z"/>
		</g>
		<g>
			<linearGradient id="SVGID_19_" gradientUnits="userSpaceOnUse" x1="281.7848" y1="837.98" x2="274.9058" y2="1221.8271">
				<stop  offset="0" style="stop-color:#1A1A40;stop-opacity:0"/>
				<stop  offset="0.7383" style="stop-color:#1A1A40"/>
			</linearGradient>
			<path class="st20" d="M321.12,969.98l-5.77-5.76c1.04,0.87,2.04,1.8,3,2.76C319.31,967.94,320.24,968.94,321.12,969.98z"/>
			<linearGradient id="SVGID_20_" gradientUnits="userSpaceOnUse" x1="281.7848" y1="837.98" x2="274.9058" y2="1221.8271">
				<stop  offset="0" style="stop-color:#1A1A40;stop-opacity:0"/>
				<stop  offset="0.7383" style="stop-color:#1A1A40"/>
			</linearGradient>
			<path class="st21" d="M315.35,964.22l5.77,5.76c-0.88-1.04-1.81-2.04-2.77-3C317.39,966.02,316.39,965.09,315.35,964.22
				L315.35,964.22z"/>
		</g>
		<g>
			<linearGradient id="SVGID_21_" gradientUnits="userSpaceOnUse" x1="281.7848" y1="837.98" x2="274.9058" y2="1221.8271">
				<stop  offset="0" style="stop-color:#1A1A40;stop-opacity:0"/>
				<stop  offset="0.7383" style="stop-color:#1A1A40"/>
			</linearGradient>
			<path class="st22" d="M321.7,1034.15c-2.11,2.58-4.47,4.94-7.05,7.05L321.7,1034.15z"/>
			<linearGradient id="SVGID_22_" gradientUnits="userSpaceOnUse" x1="281.7848" y1="837.98" x2="274.9058" y2="1221.8271">
				<stop  offset="0" style="stop-color:#1A1A40;stop-opacity:0"/>
				<stop  offset="0.7383" style="stop-color:#1A1A40"/>
			</linearGradient>
			<path class="st23" d="M321.7,1034.15l-7.05,7.05C317.23,1039.09,319.59,1036.73,321.7,1034.15L321.7,1034.15z"/>
		</g>
	</g>
</g>
<g>
	<linearGradient id="SVGID_23_" gradientUnits="userSpaceOnUse" x1="1361.5244" y1="313.6674" x2="1292.4756" y2="241.1657">
		<stop  offset="0" style="stop-color:#7A0BC0"/>
		<stop  offset="1" style="stop-color:#270082"/>
	</linearGradient>
	<path class="st24" d="M1327,327.5L1327,327.5c-27.61,0-50-22.39-50-50v-0.17c0-27.61,22.39-50,50-50l0,0c27.61,0,50,22.39,50,50
		v0.17C1377,305.11,1354.61,327.5,1327,327.5z"/>
</g>
</svg>
